<svg width="42" height="54" viewBox="0 0 42 54" fill="none" xmlns="http://www.w3.org/2000/svg">
<path d="M20.9999 53.2501C17.316 50.1078 13.9013 46.6628 10.7916 42.9513C6.12492 37.3776 0.583255 29.0768 0.583255 21.1668C0.579118 12.9054 5.55397 5.45581 13.1864 2.29416C20.8188 -0.867485 29.6043 0.882037 35.4433 6.72634C39.2829 10.5489 41.4338 15.7487 41.4167 21.1668C41.4167 29.0768 35.8749 37.3776 31.2083 42.9513C28.0985 46.6628 24.6839 50.1078 20.9999 53.2501ZM20.9999 12.4168C17.8739 12.4168 14.9852 14.0845 13.4222 16.7918C11.8592 19.499 11.8592 22.8345 13.4222 25.5418C14.9852 28.249 17.8739 29.9168 20.9999 29.9168C25.8324 29.9168 29.7499 25.9992 29.7499 21.1668C29.7499 16.3343 25.8324 12.4168 20.9999 12.4168Z" fill="#0336FF"/>
</svg>
